<?xml version="1.0" encoding="UTF-8" standalone="no"?>
<!-- Created with Inkscape (http://www.inkscape.org/) -->

<svg
   xmlns:dc="http://purl.org/dc/elements/1.1/"
   xmlns:cc="http://creativecommons.org/ns#"
   xmlns:rdf="http://www.w3.org/1999/02/22-rdf-syntax-ns#"
   xmlns:svg="http://www.w3.org/2000/svg"
   xmlns="http://www.w3.org/2000/svg"
   xmlns:sodipodi="http://sodipodi.sourceforge.net/DTD/sodipodi-0.dtd"
   xmlns:inkscape="http://www.inkscape.org/namespaces/inkscape"
   width="13.649744mm"
   height="15.410999mm"
   viewBox="0 0 13.649744 15.410999"
   version="1.1"
   id="svg5186"
   inkscape:version="0.92.4 (5da689c313, 2019-01-14)"
   sodipodi:docname="fujiwara_lab_logo_atom.svg">
  <defs
     id="defs5180" />
  <sodipodi:namedview
     id="base"
     pagecolor="#ffffff"
     bordercolor="#666666"
     borderopacity="1.0"
     inkscape:pageopacity="0.0"
     inkscape:pageshadow="2"
     inkscape:zoom="0.35"
     inkscape:cx="1828.6519"
     inkscape:cy="-716.59114"
     inkscape:document-units="mm"
     inkscape:current-layer="layer1"
     showgrid="false"
     inkscape:window-width="3440"
     inkscape:window-height="1369"
     inkscape:window-x="-8"
     inkscape:window-y="-8"
     inkscape:window-maximized="1" />
  <metadata
     id="metadata5183">
    <rdf:RDF>
      <cc:Work
         rdf:about="">
        <dc:format>image/svg+xml</dc:format>
        <dc:type
           rdf:resource="http://purl.org/dc/dcmitype/StillImage" />
        <dc:title></dc:title>
      </cc:Work>
    </rdf:RDF>
  </metadata>
  <g
     inkscape:label="Layer 1"
     inkscape:groupmode="layer"
     id="layer1"
     transform="translate(513.31297,56.175738)">
    <g
       id="g4733"
       transform="matrix(1.0415618,0,0,1.0415618,-615.79786,-45.17401)">
      <g
         id="g4742"
         transform="matrix(0.12047289,0,0,0.12047289,96.60349,-16.475707)">
        <g
           id="g4776">
          <path
             sodipodi:open="true"
             d="m 79.264132,110.50381 a 10.000005,10 0 0 1 -9.963256,9.98579 10.000005,10 0 0 1 -10.03636,-9.91232 10.000005,10 0 0 1 9.861135,-10.08665 10.000005,10 0 0 1 10.136698,9.80968"
             sodipodi:end="6.2642486"
             sodipodi:start="0.00141379"
             sodipodi:ry="10"
             sodipodi:rx="10.000005"
             sodipodi:cy="110.48967"
             sodipodi:cx="69.264137"
             sodipodi:type="arc"
             id="path4645"
             style="fill:#ff0000;fill-opacity:1;stroke:none;stroke-width:0.17515403;stroke-opacity:0" />
          <ellipse
             ry="58.908211"
             rx="18.908209"
             cy="110.48967"
             cx="69.264137"
             id="path4649"
             style="fill:none;fill-opacity:1;stroke:#83541e;stroke-width:5;stroke-miterlimit:4;stroke-dasharray:none;stroke-opacity:1" />
          <ellipse
             transform="rotate(-60)"
             ry="58.908211"
             rx="18.908209"
             cy="115.22933"
             cx="-61.054794"
             id="path4649-0"
             style="fill:none;fill-opacity:1;stroke:#83541e;stroke-width:5;stroke-miterlimit:4;stroke-dasharray:none;stroke-opacity:1" />
          <ellipse
             transform="rotate(60)"
             ry="58.908211"
             rx="18.908209"
             cy="-4.7396679"
             cx="130.31892"
             id="path4649-3"
             style="fill:none;fill-opacity:1;stroke:#83541e;stroke-width:5;stroke-miterlimit:4;stroke-dasharray:none;stroke-opacity:1" />
          <path
             sodipodi:open="true"
             d="m 106.46761,78.029974 a 7.5000038,7.5 0 0 1 -7.472443,7.489346 7.5000038,7.5 0 0 1 -7.52727,-7.434239 7.5000038,7.5 0 0 1 7.395851,-7.564991 7.5000038,7.5 0 0 1 7.602522,7.357264"
             sodipodi:end="6.2642486"
             sodipodi:start="0.00141379"
             sodipodi:ry="7.5"
             sodipodi:rx="7.5000038"
             sodipodi:cy="78.019371"
             sodipodi:cx="98.967613"
             sodipodi:type="arc"
             id="path4645-2"
             style="fill:#000000;fill-opacity:1;stroke:none;stroke-width:0.13136551;stroke-opacity:0" />
          <path
             sodipodi:open="true"
             d="m 89.523693,152.14558 a 7.5000038,7.4999995 0 0 1 -7.472442,7.48935 7.5000038,7.4999995 0 0 1 -7.52727,-7.43424 7.5000038,7.4999995 0 0 1 7.395851,-7.56499 7.5000038,7.4999995 0 0 1 7.602524,7.35726"
             sodipodi:end="6.2642486"
             sodipodi:start="0.00141379"
             sodipodi:ry="7.4999995"
             sodipodi:rx="7.5000038"
             sodipodi:cy="152.13498"
             sodipodi:cx="82.023697"
             sodipodi:type="arc"
             id="path4645-2-2"
             style="fill:#f2c500;fill-opacity:1;stroke:none;stroke-width:0.13136552;stroke-opacity:0" />
          <path
             sodipodi:open="true"
             d="m 34.306748,100.92195 a 7.5000038,7.4999986 0 0 1 -7.472443,7.48934 7.5000038,7.4999986 0 0 1 -7.52727,-7.43423 7.5000038,7.4999986 0 0 1 7.395851,-7.564993 7.5000038,7.4999986 0 0 1 7.602524,7.357263"
             sodipodi:end="6.2642486"
             sodipodi:start="0.00141379"
             sodipodi:ry="7.4999986"
             sodipodi:rx="7.5000038"
             sodipodi:cy="100.91135"
             sodipodi:cx="26.806751"
             sodipodi:type="arc"
             id="path4645-2-2-2"
             style="fill:#000000;fill-opacity:1;stroke:none;stroke-width:0.13136551;stroke-opacity:0" />
        </g>
      </g>
    </g>
  </g>
</svg>
